<svg xmlns="http://www.w3.org/2000/svg" xmlns:xlink="http://www.w3.org/1999/xlink" width="40" zoomAndPan="magnify" viewBox="0 0 30 30.000001" height="40" preserveAspectRatio="xMidYMid meet" version="1.0"><defs><clipPath id="9c6d094ade"><path d="M 0.484375 0 L 29.515625 0 L 29.515625 29.03125 L 0.484375 29.03125 Z M 0.484375 0 " clip-rule="nonzero"/></clipPath><clipPath id="65648103a9"><path d="M 3.886719 0 L 26.113281 0 C 27.015625 0 27.882812 0.359375 28.519531 0.996094 C 29.15625 1.632812 29.515625 2.5 29.515625 3.402344 L 29.515625 25.628906 C 29.515625 27.507812 27.992188 29.03125 26.113281 29.03125 L 3.886719 29.03125 C 2.007812 29.03125 0.484375 27.507812 0.484375 25.628906 L 0.484375 3.402344 C 0.484375 1.523438 2.007812 0 3.886719 0 Z M 3.886719 0 " clip-rule="nonzero"/></clipPath><clipPath id="88129f39b9"><path d="M 0.484375 0 L 29.515625 0 L 29.515625 29.03125 L 0.484375 29.03125 Z M 0.484375 0 " clip-rule="nonzero"/></clipPath><clipPath id="1c4fede4e8"><path d="M 3.886719 0 L 26.113281 0 C 27.015625 0 27.882812 0.359375 28.519531 0.996094 C 29.15625 1.632812 29.515625 2.5 29.515625 3.402344 L 29.515625 25.628906 C 29.515625 27.507812 27.992188 29.03125 26.113281 29.03125 L 3.886719 29.03125 C 2.007812 29.03125 0.484375 27.507812 0.484375 25.628906 L 0.484375 3.402344 C 0.484375 1.523438 2.007812 0 3.886719 0 Z M 3.886719 0 " clip-rule="nonzero"/></clipPath><clipPath id="a1ad890197"><rect x="0" width="30" y="0" height="30"/></clipPath><clipPath id="cc3ab710c9"><path d="M 5.664062 6.824219 L 24.335938 6.824219 L 24.335938 8.726562 L 5.664062 8.726562 Z M 5.664062 6.824219 " clip-rule="nonzero"/></clipPath><clipPath id="f9697dc2c0"><path d="M 0.664062 0.824219 L 19.335938 0.824219 L 19.335938 2.726562 L 0.664062 2.726562 Z M 0.664062 0.824219 " clip-rule="nonzero"/></clipPath><clipPath id="f8cdfb1008"><rect x="0" width="20" y="0" height="3"/></clipPath><clipPath id="2af9b33561"><path d="M 14.042969 7.773438 L 15.941406 7.773438 L 15.941406 22.207031 L 14.042969 22.207031 Z M 14.042969 7.773438 " clip-rule="nonzero"/></clipPath><clipPath id="b4809cdba5"><path d="M 0.0429688 0.773438 L 1.941406 0.773438 L 1.941406 15.207031 L 0.0429688 15.207031 Z M 0.0429688 0.773438 " clip-rule="nonzero"/></clipPath><clipPath id="60a1a4d9d2"><rect x="0" width="2" y="0" height="16"/></clipPath></defs><g clip-path="url(#9c6d094ade)"><g clip-path="url(#65648103a9)"><g transform="matrix(1, 0, 0, 1, 0, 0.000000000000005692)"><g clip-path="url(#a1ad890197)"><g clip-path="url(#88129f39b9)"><g clip-path="url(#1c4fede4e8)"><path fill="#0f0f0f" d="M 0.484375 0 L 29.515625 0 L 29.515625 29.03125 L 0.484375 29.03125 Z M 0.484375 0 " fill-opacity="1" fill-rule="nonzero"/></g></g></g></g></g></g><g clip-path="url(#cc3ab710c9)"><g transform="matrix(1, 0, 0, 1, 5, 6)"><g clip-path="url(#f8cdfb1008)"><g clip-path="url(#f9697dc2c0)"><path fill="#ffffff" d="M 0.664062 0.824219 L 19.335938 0.824219 L 19.335938 2.726562 L 0.664062 2.726562 Z M 0.664062 0.824219 " fill-opacity="1" fill-rule="nonzero"/></g></g></g></g><g clip-path="url(#2af9b33561)"><g transform="matrix(1, 0, 0, 1, 14, 7)"><g clip-path="url(#60a1a4d9d2)"><g clip-path="url(#b4809cdba5)"><path fill="#ffffff" d="M 1.941406 0.773438 L 1.941406 15.203125 L 0.0429688 15.203125 L 0.0429688 0.773438 Z M 1.941406 0.773438 " fill-opacity="1" fill-rule="nonzero"/></g></g></g></g></svg>