<svg xmlns="http://www.w3.org/2000/svg" xmlns:xlink="http://www.w3.org/1999/xlink" width="512" zoomAndPan="magnify" viewBox="0 0 384 383.999986" height="512" preserveAspectRatio="xMidYMid meet" version="1.0"><defs><clipPath id="aba160582a"><path d="M 86.398438 0 L 297.601562 0 C 320.515625 0 342.492188 9.101562 358.695312 25.304688 C 374.898438 41.507812 384 63.484375 384 86.398438 L 384 297.601562 C 384 345.316406 345.316406 384 297.601562 384 L 86.398438 384 C 38.683594 384 0 345.316406 0 297.601562 L 0 86.398438 C 0 38.683594 38.683594 0 86.398438 0 Z M 86.398438 0 " clip-rule="nonzero"/></clipPath><clipPath id="bd75c72f47"><path d="M 0 0 L 384 0 L 384 384 L 0 384 Z M 0 0 " clip-rule="nonzero"/></clipPath><clipPath id="854d475fd0"><path d="M 86.398438 0 L 297.601562 0 C 320.515625 0 342.492188 9.101562 358.695312 25.304688 C 374.898438 41.507812 384 63.484375 384 86.398438 L 384 297.601562 C 384 345.316406 345.316406 384 297.601562 384 L 86.398438 384 C 38.683594 384 0 345.316406 0 297.601562 L 0 86.398438 C 0 38.683594 38.683594 0 86.398438 0 Z M 86.398438 0 " clip-rule="nonzero"/></clipPath><clipPath id="39414b751c"><rect x="0" width="384" y="0" height="384"/></clipPath><clipPath id="effdf928e5"><path d="M 68.53125 90.265625 L 315.46875 90.265625 L 315.46875 138.265625 L 68.53125 138.265625 Z M 68.53125 90.265625 " clip-rule="nonzero"/></clipPath><clipPath id="4052b08ad7"><path d="M 0.53125 0.265625 L 247.46875 0.265625 L 247.46875 48.265625 L 0.53125 48.265625 Z M 0.53125 0.265625 " clip-rule="nonzero"/></clipPath><clipPath id="11698b6bc4"><rect x="0" width="248" y="0" height="49"/></clipPath><clipPath id="a294fe57a5"><path d="M 167.996094 102.84375 L 215.996094 102.84375 L 215.996094 293.742188 L 167.996094 293.742188 Z M 167.996094 102.84375 " clip-rule="nonzero"/></clipPath><clipPath id="c215f67eab"><path d="M 0.996094 0.84375 L 48.996094 0.84375 L 48.996094 191.742188 L 0.996094 191.742188 Z M 0.996094 0.84375 " clip-rule="nonzero"/></clipPath><clipPath id="eb272a086c"><rect x="0" width="49" y="0" height="192"/></clipPath></defs><g clip-path="url(#aba160582a)"><g><g clip-path="url(#39414b751c)"><g clip-path="url(#bd75c72f47)"><g clip-path="url(#854d475fd0)"><rect x="-84.48" width="552.96" fill="#0f0f0f" height="552.959979" y="-84.479997" fill-opacity="1"/></g></g></g></g></g><g clip-path="url(#effdf928e5)"><g transform="matrix(1, 0, 0, 1, 68, 90)"><g clip-path="url(#11698b6bc4)"><g clip-path="url(#4052b08ad7)"><path fill="#ffffff" d="M 0.53125 0.265625 L 247.46875 0.265625 L 247.46875 48.265625 L 0.53125 48.265625 Z M 0.53125 0.265625 " fill-opacity="1" fill-rule="nonzero"/></g></g></g></g><g clip-path="url(#a294fe57a5)"><g transform="matrix(1, 0, 0, 1, 167, 102)"><g clip-path="url(#eb272a086c)"><g clip-path="url(#c215f67eab)"><path fill="#ffffff" d="M 48.996094 0.84375 L 48.996094 191.71875 L 0.996094 191.71875 L 0.996094 0.84375 Z M 48.996094 0.84375 " fill-opacity="1" fill-rule="nonzero"/></g></g></g></g></svg>