<svg xmlns="http://www.w3.org/2000/svg" xmlns:xlink="http://www.w3.org/1999/xlink" width="40" zoomAndPan="magnify" viewBox="0 0 30 30.000001" height="40" preserveAspectRatio="xMidYMid meet" version="1.0"><defs><clipPath id="d23eee5b48"><path d="M 0.484375 0 L 29.515625 0 L 29.515625 29.03125 L 0.484375 29.03125 Z M 0.484375 0 " clip-rule="nonzero"/></clipPath><clipPath id="a9e1fcfe74"><path d="M 7.015625 0 L 22.984375 0 C 24.714844 0 26.378906 0.6875 27.601562 1.914062 C 28.828125 3.136719 29.515625 4.800781 29.515625 6.53125 L 29.515625 22.5 C 29.515625 26.109375 26.589844 29.03125 22.984375 29.03125 L 7.015625 29.03125 C 3.410156 29.03125 0.484375 26.109375 0.484375 22.5 L 0.484375 6.53125 C 0.484375 2.925781 3.410156 0 7.015625 0 Z M 7.015625 0 " clip-rule="nonzero"/></clipPath><clipPath id="ecbdf00491"><path d="M 0.484375 0 L 29.515625 0 L 29.515625 29.03125 L 0.484375 29.03125 Z M 0.484375 0 " clip-rule="nonzero"/></clipPath><clipPath id="7097db9c86"><path d="M 7.015625 0 L 22.984375 0 C 24.714844 0 26.378906 0.6875 27.601562 1.914062 C 28.828125 3.136719 29.515625 4.800781 29.515625 6.53125 L 29.515625 22.5 C 29.515625 26.109375 26.589844 29.03125 22.984375 29.03125 L 7.015625 29.03125 C 3.410156 29.03125 0.484375 26.109375 0.484375 22.5 L 0.484375 6.53125 C 0.484375 2.925781 3.410156 0 7.015625 0 Z M 7.015625 0 " clip-rule="nonzero"/></clipPath><clipPath id="3280039c08"><rect x="0" width="30" y="0" height="30"/></clipPath><clipPath id="b480e5fbec"><path d="M 5.664062 6.824219 L 24.335938 6.824219 L 24.335938 10.453125 L 5.664062 10.453125 Z M 5.664062 6.824219 " clip-rule="nonzero"/></clipPath><clipPath id="83192259fb"><path d="M 0.664062 0.824219 L 19.335938 0.824219 L 19.335938 4.453125 L 0.664062 4.453125 Z M 0.664062 0.824219 " clip-rule="nonzero"/></clipPath><clipPath id="f66d302f11"><rect x="0" width="20" y="0" height="5"/></clipPath><clipPath id="2da712ba5c"><path d="M 13.183594 7.777344 L 16.8125 7.777344 L 16.8125 22.210938 L 13.183594 22.210938 Z M 13.183594 7.777344 " clip-rule="nonzero"/></clipPath><clipPath id="f07f0de7b9"><path d="M 0.183594 0.777344 L 3.8125 0.777344 L 3.8125 15.210938 L 0.183594 15.210938 Z M 0.183594 0.777344 " clip-rule="nonzero"/></clipPath><clipPath id="5b63808f0e"><rect x="0" width="4" y="0" height="16"/></clipPath></defs><g clip-path="url(#d23eee5b48)"><g clip-path="url(#a9e1fcfe74)"><g transform="matrix(1, 0, 0, 1, 0, 0.000000000000005692)"><g clip-path="url(#3280039c08)"><g clip-path="url(#ecbdf00491)"><g clip-path="url(#7097db9c86)"><path fill="#0f0f0f" d="M 0.484375 0 L 29.515625 0 L 29.515625 29.03125 L 0.484375 29.03125 Z M 0.484375 0 " fill-opacity="1" fill-rule="nonzero"/></g></g></g></g></g></g><g clip-path="url(#b480e5fbec)"><g transform="matrix(1, 0, 0, 1, 5, 6)"><g clip-path="url(#f66d302f11)"><g clip-path="url(#83192259fb)"><path fill="#ffffff" d="M 0.664062 0.824219 L 19.335938 0.824219 L 19.335938 4.453125 L 0.664062 4.453125 Z M 0.664062 0.824219 " fill-opacity="1" fill-rule="nonzero"/></g></g></g></g><g clip-path="url(#2da712ba5c)"><g transform="matrix(1, 0, 0, 1, 13, 7)"><g clip-path="url(#5b63808f0e)"><g clip-path="url(#f07f0de7b9)"><path fill="#ffffff" d="M 3.8125 0.777344 L 3.8125 15.210938 L 0.183594 15.210938 L 0.183594 0.777344 Z M 3.8125 0.777344 " fill-opacity="1" fill-rule="nonzero"/></g></g></g></g></svg>